<?xml version="1.0"?>
<svg xmlns="http://www.w3.org/2000/svg" xmlns:xlink="http://www.w3.org/1999/xlink" version="1.1" id="Layer_1" x="0px" y="0px" viewBox="0 0 512.005 512.005" style="enable-background:new 0 0 512.005 512.005;" xml:space="preserve" width="30px" height="30px" class=""><g><g>
	<g>
		<path d="M512.003,256.005c0-7.808-4.267-14.997-11.115-18.731l-63.445-34.603l63.445-34.603    c6.848-3.755,11.115-10.923,11.115-18.731c0-7.808-4.267-14.997-11.115-18.731l-234.667-128c-6.336-3.477-14.101-3.477-20.437,0    l-234.667,128c-6.848,3.733-11.115,10.923-11.115,18.731c0,7.808,4.267,14.976,11.115,18.731l63.445,34.603l-63.445,34.603    c-6.848,3.733-11.115,10.923-11.115,18.731s4.267,14.976,11.115,18.731l63.445,34.603l-63.445,34.603    c-6.848,3.733-11.115,10.923-11.115,18.731c0,7.808,4.267,14.976,11.115,18.731l234.667,128c3.179,1.728,6.699,2.603,10.219,2.603    c3.52,0,7.04-0.875,10.219-2.603l234.667-128c6.848-3.755,11.115-10.923,11.115-18.731c0-7.808-4.267-14.997-11.115-18.731    l-63.445-34.603l63.445-34.603C507.736,270.981,512.003,263.813,512.003,256.005z M446.125,362.672L256.003,466.373L65.88,362.672    l53.227-29.035l126.677,69.099c6.336,3.477,14.101,3.477,20.437,0l126.677-69.099L446.125,362.672z M256.003,253.04L65.88,149.339    L256.003,45.637l190.123,103.701L256.003,253.04z" data-original="#000000" class="active-path" data-old_color="#000000" fill="#008FED"/>
	</g>
</g></g> </svg>
