<?xml version="1.0" encoding="iso-8859-1"?>
<!-- Generator: Adobe Illustrator 16.0.0, SVG Export Plug-In . SVG Version: 6.00 Build 0)  -->
<!DOCTYPE svg PUBLIC "-//W3C//DTD SVG 1.1//EN" "http://www.w3.org/Graphics/SVG/1.1/DTD/svg11.dtd">
<svg xmlns="http://www.w3.org/2000/svg" xmlns:xlink="http://www.w3.org/1999/xlink" version="1.1" id="Capa_1" x="0px" y="0px" width="30px" height="30px" viewBox="0 0 593.617 593.617" style="enable-background:new 0 0 593.617 593.617;" xml:space="preserve">
<g>
	<g>
		<path d="M578.691,472.297L442.203,356.494c-3.249-2.708-7.228-4.171-11.267-4.171c-5.643,0-11.016,2.843-14.373,7.607    c-15.532,22.028-34.578,41.086-56.609,56.634c-4.101,2.896-6.818,7.32-7.451,12.143c-0.634,4.828,0.777,9.603,3.975,13.439    l115.873,136.61c7.852,9.422,19.254,14.859,31.23,14.859c10.768,0,21.022-4.323,28.877-12.179l48.981-48.981    c8.345-8.348,12.656-19.241,12.136-30.68C593.053,490.329,587.768,479.861,578.691,472.297z" fill="#018fed"/>
		<path d="M216.871,433.743c57.926,0,112.385-22.558,153.349-63.522c40.965-40.964,63.522-95.423,63.522-153.349    c0-119.582-97.286-216.871-216.871-216.871C97.29,0.001,0,97.288,0,216.872C0,336.457,97.29,433.743,216.871,433.743z     M70.282,216.872c0-80.83,65.76-146.589,146.589-146.589c80.83,0,146.59,65.76,146.59,146.589    c0,39.092-15.264,75.885-42.984,103.603c-27.72,27.718-64.514,42.983-103.605,42.983    C136.042,363.462,70.282,297.702,70.282,216.872z" fill="#018fed"/>
		<path d="M152.238,216.872c0-35.64,28.997-64.636,64.637-64.636c16.9,0,30.6-13.7,30.6-30.6s-13.699-30.6-30.6-30.6    c-69.386,0-125.836,56.448-125.836,125.836c0,16.9,13.699,30.6,30.6,30.6S152.238,233.772,152.238,216.872z" fill="#018fed"/>
	</g>
</g>
<g>
</g>
<g>
</g>
<g>
</g>
<g>
</g>
<g>
</g>
<g>
</g>
<g>
</g>
<g>
</g>
<g>
</g>
<g>
</g>
<g>
</g>
<g>
</g>
<g>
</g>
<g>
</g>
<g>
</g>
</svg>
