<?xml version="1.0" encoding="iso-8859-1"?>
<!-- Generator: Adobe Illustrator 19.0.0, SVG Export Plug-In . SVG Version: 6.00 Build 0)  -->
<svg xmlns="http://www.w3.org/2000/svg" xmlns:xlink="http://www.w3.org/1999/xlink" version="1.1" id="Capa_1" x="0px" y="0px" viewBox="0 0 236.693 236.693" style="enable-background:new 0 0 236.693 236.693;" xml:space="preserve" width="30px" height="30px">
<g>
	<path d="M88.785,92.328c0-24.479-19.914-44.393-44.392-44.393C19.915,47.935,0,67.849,0,92.328   c0,13.137,10.368,30.834,19.065,43.366c4.457,6.422,9.331,12.679,13.723,17.617c7.179,8.072,9.503,8.729,11.605,8.729   c2.13,0,4.478-0.656,11.666-8.726c4.386-4.923,9.259-11.183,13.721-17.625C76.878,125.441,88.785,106.18,88.785,92.328z    M62.711,92.022c0,10.021-8.152,18.173-18.173,18.173c-10.021,0-18.174-8.152-18.174-18.173s8.152-18.173,18.174-18.173   C54.559,73.849,62.711,82.002,62.711,92.022z" fill="#008fed"/>
	<path d="M192.302,47.935c-24.479,0-44.394,19.914-44.394,44.393c0,13.137,10.368,30.834,19.065,43.366   c4.457,6.422,9.331,12.679,13.723,17.617c7.179,8.072,9.503,8.729,11.605,8.729c2.13,0,4.478-0.656,11.666-8.726   c4.386-4.923,9.259-11.183,13.721-17.625c7.098-10.249,19.005-29.51,19.005-43.362C236.693,67.849,216.779,47.935,192.302,47.935z    M210.619,92.022c0,10.021-8.152,18.173-18.173,18.173c-10.021,0-18.174-8.152-18.174-18.173s8.152-18.173,18.174-18.173   C202.467,73.849,210.619,82.002,210.619,92.022z" fill="#008fed"/>
	<path d="M167.664,160.249l-19.07-14.867c-1.282-0.999-2.683-1.527-4.049-1.527c-2.796,0-5.627,2.299-5.627,6.778l-0.01,4.632   H74.883c-4.938,0-8.869,4.113-8.869,9.051v3.979c0,4.938,3.932,8.971,8.869,8.971h64.083l-0.313,4.667   c0,4.484,2.361,6.827,5.361,6.827v-0.002c2,0,3.032-0.529,4.313-1.528l19.204-14.868c1.972-1.537,3.169-3.744,3.169-6.056   S169.636,161.786,167.664,160.249z" fill="#008fed"/>
</g>
<g>
</g>
<g>
</g>
<g>
</g>
<g>
</g>
<g>
</g>
<g>
</g>
<g>
</g>
<g>
</g>
<g>
</g>
<g>
</g>
<g>
</g>
<g>
</g>
<g>
</g>
<g>
</g>
<g>
</g>
</svg>
