<?xml version="1.0" encoding="iso-8859-1"?>
<!-- Generator: Adobe Illustrator 19.0.0, SVG Export Plug-In . SVG Version: 6.00 Build 0)  -->
<svg xmlns="http://www.w3.org/2000/svg" xmlns:xlink="http://www.w3.org/1999/xlink" version="1.1" id="Layer_1" x="0px" y="0px" viewBox="0 0 512 512" style="enable-background:new 0 0 512 512;" xml:space="preserve" width="30px" height="30px">
<g>
	<g>
		<path d="M256,0C156.011,0,74.667,81.344,74.667,181.333c0,175.296,167.232,321.92,174.357,328.064    c2.005,1.728,4.48,2.603,6.976,2.603c2.496,0,4.971-0.875,6.976-2.603c7.125-6.144,174.357-152.768,174.357-328.064    C437.333,81.344,355.989,0,256,0z M347.563,253.867c-22.507,28.459-55.893,44.8-91.563,44.8s-69.056-16.341-91.563-44.8    c-1.899-2.411-2.667-5.504-2.133-8.512s2.347-5.653,4.971-7.232c5.461-3.307,10.475-5.419,15.765-6.613l31.723-7.979l1.536-6.208    c-7.765-8.96-13.312-20.224-15.68-31.915c-6.528-2.837-10.987-8.533-11.925-15.424l-2.368-18.688    c-0.661-5.803,1.131-11.52,4.928-15.765c1.259-1.387,2.709-2.624,4.288-3.605c-0.576-5.461-1.195-12.011-1.195-15.467    c0-17.899,5.184-41.621,49.152-43.221c6.464-4.032,13.739-6.72,21.632-8.043c6.059-0.981,11.349-1.216,15.189-1.216    c23.253,0,34.752,10.197,40.299,18.731c1.152,1.899,1.792,3.179,2.453,4.821c7.488,14.507,2.24,25.216-3.563,31.509l-2.069,2.069    l-0.512,11.179c1.515,1.003,2.901,2.219,4.075,3.605c3.605,4.203,5.312,9.771,4.672,15.296l-2.347,18.688    c-0.917,6.72-5.099,12.288-10.795,15.211c-2.411,12.267-8.277,24-16.597,33.088l1.323,5.376l31.957,8.021    c5.035,1.152,10.048,3.243,15.509,6.571c2.624,1.579,4.437,4.224,4.971,7.232S349.461,251.456,347.563,253.867z" fill="#fe5e05"/>
	</g>
</g>
<g>
</g>
<g>
</g>
<g>
</g>
<g>
</g>
<g>
</g>
<g>
</g>
<g>
</g>
<g>
</g>
<g>
</g>
<g>
</g>
<g>
</g>
<g>
</g>
<g>
</g>
<g>
</g>
<g>
</g>
</svg>
