<?xml version="1.0" encoding="iso-8859-1"?>
<!-- Generator: Adobe Illustrator 19.0.0, SVG Export Plug-In . SVG Version: 6.00 Build 0)  -->
<svg version="1.1" id="Layer_1" xmlns="http://www.w3.org/2000/svg" xmlns:xlink="http://www.w3.org/1999/xlink" x="0px" y="0px"
	 viewBox="0 0 512.001 512.001" style="enable-background:new 0 0 512.001 512.001;" xml:space="preserve">
<g>
	<g>
		<path style="fill:#BDC3C7;" d="M229.517,251.587c0-27.86,11.802-52.913,30.596-70.621H17.655C7.901,180.966,0,188.867,0,198.621
			v105.931c0,9.754,7.901,17.655,17.655,17.655h242.458C241.32,304.499,229.517,279.447,229.517,251.587"/>
		<path style="fill:#BDC3C7;" d="M393.129,180.966c18.794,17.708,30.596,42.761,30.596,70.621s-11.802,52.913-30.596,70.621h101.217
			c9.746,0,17.655-7.901,17.655-17.655V198.621c0-9.754-7.909-17.655-17.655-17.655H393.129z"/>
	</g>
	<path style="fill:#38454F;" d="M423.724,251.587c0-53.628-43.476-97.103-97.103-97.103s-97.103,43.476-97.103,97.103
		s43.476,97.103,97.103,97.103S423.724,305.214,423.724,251.587"/>
	<path style="fill:#546A79;" d="M326.621,313.38c-34.066,0-61.793-27.719-61.793-61.793s27.727-61.793,61.793-61.793
		s61.793,27.719,61.793,61.793S360.686,313.38,326.621,313.38"/>
	<g>
		<path style="fill:#38454F;" d="M300.138,260.414c-4.882,0-8.828-3.955-8.828-8.828c0-19.474,15.837-35.31,35.31-35.31
			c4.882,0,8.828,3.955,8.828,8.828c0,4.873-3.946,8.828-8.828,8.828c-9.737,0-17.655,7.918-17.655,17.655
			C308.966,256.459,305.02,260.414,300.138,260.414"/>
		<path style="fill:#38454F;" d="M61.793,357.518H44.138c-9.754,0-17.655-7.901-17.655-17.655v-17.655h52.966v17.655
			C79.448,349.617,71.548,357.518,61.793,357.518"/>
		<path style="fill:#38454F;" d="M467.862,357.518h-17.655c-9.754,0-17.655-7.901-17.655-17.655v-17.655h52.966v17.655
			C485.517,349.617,477.617,357.518,467.862,357.518"/>
		<path style="fill:#38454F;" d="M194.207,225.104h-70.621c-4.882,0-8.828-3.955-8.828-8.828c0-4.873,3.946-8.828,8.828-8.828
			h70.621c4.882,0,8.828,3.955,8.828,8.828C203.034,221.149,199.089,225.104,194.207,225.104"/>
		<path style="fill:#38454F;" d="M194.207,260.414h-70.621c-4.882,0-8.828-3.955-8.828-8.828c0-4.873,3.946-8.828,8.828-8.828
			h70.621c4.882,0,8.828,3.955,8.828,8.828C203.034,256.459,199.089,260.414,194.207,260.414"/>
		<path style="fill:#38454F;" d="M194.207,295.725h-70.621c-4.882,0-8.828-3.955-8.828-8.828c0-4.873,3.946-8.828,8.828-8.828
			h70.621c4.882,0,8.828,3.955,8.828,8.828C203.034,291.77,199.089,295.725,194.207,295.725"/>
		<polygon style="fill:#38454F;" points="35.31,286.897 88.276,286.897 88.276,216.276 35.31,216.276 		"/>
	</g>
</g>
<g>
</g>
<g>
</g>
<g>
</g>
<g>
</g>
<g>
</g>
<g>
</g>
<g>
</g>
<g>
</g>
<g>
</g>
<g>
</g>
<g>
</g>
<g>
</g>
<g>
</g>
<g>
</g>
<g>
</g>
</svg>
